<svg width="105" height="36" viewBox="0 0 105 36" fill="none" xmlns="http://www.w3.org/2000/svg">
<g id="Layer_1" clip-path="url(#clip0_527_800)">
<g id="Group">
<path id="Vector" d="M13.332 24.1665C13.332 23.7254 13.2464 23.1814 13.0751 22.539C12.9037 21.8966 12.6468 21.0743 12.3084 20.0678L10.4711 15.0097C10.531 15.7506 10.561 16.483 10.561 17.2068C10.561 19.8365 10.0685 21.8623 9.0877 23.2885C8.10264 24.7147 6.59935 25.4257 4.56927 25.4257C3.12594 25.4257 2.0595 25.053 1.37853 24.3121C0.697549 23.5712 0.354919 22.5347 0.354919 21.2113C0.354919 19.8065 0.697549 18.1705 1.37853 16.3031L5.95692 3.60014C5.31449 2.51657 4.72345 1.72424 4.17952 1.22314H7.91419L14.8396 20.2519C15.3021 21.3783 15.8289 22.402 16.42 23.3228C17.011 24.2479 17.5292 24.9203 17.9704 25.34H12.9423C13.2035 25.1002 13.332 24.7061 13.332 24.1665ZM0.928824 21.2456C0.928824 23.6354 2.14088 24.8303 4.57355 24.8303C5.61857 24.8303 6.46658 24.4192 7.11758 23.5969C7.76857 22.7746 8.19686 21.5882 8.39815 20.0421C8.47953 18.92 8.26539 18.072 7.76429 17.4981C7.26319 16.9242 6.54795 16.6115 5.62714 16.5515L8.36817 15.1682L10.2055 14.2645L7.31459 6.31548C7.03192 5.6345 6.7107 4.94924 6.35094 4.26827L2.04237 16.2475C1.30143 18.3161 0.928824 19.9821 0.928824 21.2456Z" fill="#231F20"/>
<path id="Vector_2" d="M21.2508 6.34155C20.8697 5.42074 20.4799 4.61556 20.0773 3.93458V19.8626C20.0773 21.126 20.193 22.2653 20.4242 23.2803C20.6555 24.2954 20.9596 24.9806 21.3408 25.3447H18.21C18.5912 24.9849 18.8995 24.2954 19.1265 23.2803C19.3578 22.2653 19.4734 21.126 19.4734 19.8626V2.93667C18.9509 2.1529 18.5012 1.58328 18.1201 1.21924H23.1481C22.8869 1.45908 22.7584 1.8531 22.7584 2.39275C22.7584 2.83388 22.8441 3.37781 23.0154 4.02024C23.1867 4.66267 23.4437 5.48498 23.782 6.48717L28.6302 20.5179C28.7501 20.8177 28.9514 21.2716 29.2341 21.8713L36.2752 1.22352H39.8299C39.4488 1.58328 39.1404 2.27282 38.9091 3.28787C38.6778 4.30291 38.5622 5.44215 38.5622 6.7056V19.8626C38.5622 21.126 38.6778 22.2653 38.9091 23.2803C39.1404 24.2954 39.4445 24.9806 39.8299 25.3447H35.0417C35.4229 24.9849 35.7312 24.2954 35.9582 23.2803C36.1895 22.2653 36.3051 21.126 36.3051 19.8626V2.99663L29.6196 22.5993C30.322 23.8028 31.0029 24.7151 31.6668 25.3404H27.8422L21.2466 6.34155H21.2508Z" fill="#231F20"/>
<path id="Vector_3" d="M58.7519 6.402C57.8568 4.51753 56.6662 3.10419 55.1671 2.17052C53.6724 1.23685 52.0406 0.77002 50.2761 0.77002C48.5116 0.77002 46.8841 1.23685 45.3979 2.17052C43.9118 3.10419 42.7297 4.50897 41.8431 6.38487C40.9609 8.26077 40.5197 10.5564 40.5197 13.2632C40.5197 15.9699 40.9609 18.2784 41.8431 20.1714C42.7254 22.0688 43.9118 23.4821 45.3979 24.4158C46.8841 25.3494 48.5073 25.8163 50.2761 25.8163C52.0449 25.8163 53.6724 25.3452 55.1671 24.4029C56.6619 23.4607 57.8568 22.0431 58.7519 20.1586C59.647 18.2741 60.0924 15.9742 60.0924 13.2632C60.0924 10.5521 59.647 8.28646 58.7519 6.39772V6.402ZM55.771 22.8268C54.5761 24.283 53.0942 25.0111 51.3297 25.0111C50.0834 25.0111 48.8927 24.647 47.7449 23.9104C46.6014 23.178 45.6078 21.9403 44.764 20.1929C43.9203 18.4454 43.3807 16.137 43.1366 13.2674C43.0766 12.4237 43.0466 11.6314 43.0466 10.8905C43.0466 7.57979 43.6376 5.19851 44.824 3.75518C46.0104 2.31185 47.4751 1.58805 49.2225 1.58805C50.4688 1.58805 51.668 1.94781 52.8201 2.67162C53.9765 3.39542 54.9787 4.62461 55.831 6.35917C56.6833 8.09374 57.2315 10.3979 57.4713 13.2717C57.5313 14.1155 57.5613 14.9078 57.5613 15.6487C57.5613 18.9808 56.966 21.3749 55.771 22.8311V22.8268Z" fill="#231F20"/>
<path id="Vector_4" d="M85.2029 24.964C84.2993 25.495 83.0058 25.782 81.3184 25.8205C79.4125 25.8205 77.8749 25.4308 76.71 24.647C75.5451 23.8633 74.62 22.814 73.939 21.4991C73.258 20.1843 72.5042 18.3341 71.6819 15.9442C71.3607 14.9592 70.8939 14.0512 70.2814 13.2203C69.669 12.3895 68.9323 11.9697 68.0672 11.9697C67.1249 11.9697 66.3711 12.4922 65.8101 13.5373C65.249 14.5823 64.9664 16.3168 64.9664 18.7452V19.8588C64.9664 21.1222 65.082 22.2615 65.3133 23.2765C65.5445 24.2916 65.8486 24.9768 66.2298 25.3409H61.4416C61.8227 24.9811 62.1311 24.2916 62.3581 23.2765C62.5894 22.2615 62.705 21.1222 62.705 19.8588V6.7018C62.705 5.43835 62.5894 4.29911 62.3581 3.28407C62.1268 2.26902 61.8227 1.58377 61.4416 1.21972H64.7222C65.1034 1.21972 65.4632 1.18974 65.8058 1.12978C66.1484 1.06982 66.3583 1.03127 66.4397 1.00986C67.202 0.847111 67.853 0.77002 68.3969 0.77002C70.0244 0.77002 71.4892 1.06982 72.7912 1.67371C74.0975 2.27759 75.1296 3.18128 75.892 4.38476C76.6543 5.58825 77.0355 7.06584 77.0355 8.81325C77.0355 10.1795 76.7443 11.413 76.1618 12.5179C75.5793 13.6229 74.7956 14.5052 73.8148 15.169C73.8962 15.3318 73.9947 15.5888 74.1146 15.9528C74.817 18.2399 75.4337 20.0044 75.9648 21.2379C76.4959 22.4713 77.1854 23.4478 78.0291 24.1588C78.8729 24.8697 79.965 25.2295 81.3098 25.2295C82.4148 25.2295 83.25 24.9982 83.8239 24.5357M65.3775 13.0404C65.6473 12.5094 66.0414 12.0725 66.551 11.7299C67.065 11.3873 67.6517 11.2159 68.3113 11.2159C70.397 11.2159 72.0245 12.1196 73.1895 13.927C73.9732 12.8049 74.363 11.3359 74.363 9.53278C74.363 9.21156 74.3244 8.67192 74.2431 7.90528C73.9219 5.55827 73.1638 3.87938 71.9689 2.87719C70.7739 1.875 69.4762 1.3739 68.0714 1.3739C67.1678 1.3739 66.4911 1.63088 66.0371 2.14054C65.5831 2.6502 65.2961 3.2755 65.1634 4.00787C65.0349 4.74024 64.9664 5.63108 64.9664 6.67182V14.6508C64.9664 14.1069 65.1034 13.5715 65.3732 13.0404H65.3775Z" fill="#231F20"/>
<path id="Vector_5" d="M84.3161 23.276C84.5474 22.261 84.6631 21.1217 84.6631 19.8583V6.70131C84.6631 5.43787 84.5474 4.29862 84.3161 3.28358C84.0849 2.26854 83.7808 1.58328 83.3996 1.21924H98.274V3.56625C97.7515 3.02661 97.1091 2.59832 96.3467 2.28567C95.5844 1.97302 94.398 1.81884 92.792 1.81884H89.4513C88.689 1.81884 88.1193 2.04155 87.751 2.48269C87.3827 2.92382 87.1471 3.47203 87.0572 4.12303C86.9673 4.77402 86.9201 5.63488 86.9201 6.69703V12.8986C87.2414 12.3162 87.7039 11.9007 88.3035 11.648C88.9074 11.3996 89.6697 11.2711 90.5906 11.2711H91.5842C92.7663 11.2711 93.8755 11.1127 94.912 10.7915C95.9442 10.4702 96.6637 10.0976 97.0663 9.67791V13.4725C96.6637 13.0528 95.9484 12.6802 94.912 12.359C93.8755 12.0378 92.7705 11.8793 91.5842 11.8793H90.5906C89.3057 11.8793 88.372 12.1748 87.7896 12.7659C87.2071 13.3569 86.9159 14.3891 86.9159 15.8538V19.8583C86.9159 20.9247 86.9587 21.7813 87.0529 22.4323C87.1428 23.0833 87.3741 23.6315 87.7467 24.0726C88.1193 24.5138 88.6975 24.7365 89.477 24.7365H92.5778C94.3038 24.7365 95.6358 24.4795 96.5652 23.9699C97.4988 23.4602 98.2655 22.8606 98.8694 22.1796L98.1456 24.7365L97.9657 25.3404H83.3911C83.7722 24.9806 84.0806 24.2911 84.3076 23.276H84.3161Z" fill="#231F20"/>
</g>
<path id="Vector_6" d="M48.2758 12.7159C48.8883 12.3433 49.3894 11.7609 49.7834 10.9685C50.1731 10.1762 50.3701 9.18684 50.3701 8.00049C50.3701 9.76503 50.7556 11.0884 51.5308 11.9621C52.3017 12.8359 53.2525 13.2727 54.3746 13.2727C53.6722 13.2727 53.0127 13.4654 52.4002 13.8466C51.7878 14.2278 51.2953 14.8145 50.9269 15.6069C50.5543 16.3992 50.3701 17.38 50.3701 18.5406C50.3701 17.3971 50.1731 16.4292 49.7834 15.6369C49.3937 14.8445 48.8883 14.2535 48.2758 13.8595C47.6634 13.4697 47.0252 13.2727 46.3657 13.2727C47.0295 13.2727 47.6634 13.0885 48.2758 12.7159Z" fill="#F15D5E"/>
<g id="Group_2">
<path id="Vector_7" d="M75.3438 31.6955C75.4465 31.6955 75.5536 31.7811 75.5879 31.8625C75.5879 31.9182 75.378 32.0852 75.0654 32.3336C74.1617 33.0017 72.5342 34.0039 71.699 34.3937C70.1015 35.1175 68.7824 35.3659 67.9173 35.1432C67.5703 35.0575 67.1892 34.7534 67.0136 34.4493C66.5981 33.6142 67.2234 32.0252 68.8167 29.9095C70.4484 27.7381 72.9454 25.7337 74.5086 25.344C74.787 25.2883 74.924 25.2583 75.0311 25.2583C75.1382 25.2583 75.241 25.2883 75.4123 25.3697C77.0441 26.1748 74.303 29.1857 70.2429 31.0487C69.7932 31.2458 69.2364 31.4685 68.9923 31.5241C68.5768 31.6355 68.5426 31.6912 68.1956 32.4407C67.7459 33.4429 67.6731 34.308 68.0243 34.5564C68.5468 34.9462 69.9002 34.6978 71.4592 33.914C71.8404 33.717 73.0567 32.9975 73.8191 32.552C74.3416 32.2437 75.241 31.6612 75.3438 31.6612V31.6869V31.6955ZM69.8917 29.5797C69.3006 30.3035 68.9194 30.8903 69.0608 30.8903C69.1293 30.8903 69.6861 30.6419 70.2771 30.3335C71.4549 29.7211 72.8468 28.8002 73.6435 28.1064C74.5814 27.2969 75.2752 26.2134 75.0996 25.8493C75.0654 25.7637 75.0311 25.738 74.9626 25.738C74.8941 25.738 74.7913 25.7637 74.6157 25.8236C73.4721 26.2134 71.1808 28.0507 69.8959 29.6097V29.5797H69.8917Z" fill="#231F20"/>
<path id="Vector_8" d="M83.0102 31.9469C83.6698 31.5871 83.8411 31.6128 83.8411 31.9212C83.8411 31.9769 83.7041 32.1182 83.4599 32.3109C82.7661 32.8677 81.447 33.6729 80.6161 34.0626C79.0914 34.7565 78.222 34.8421 77.5282 34.3967C77.147 34.1483 77.1127 34.0626 77.1127 33.6472V33.1718L76.2818 33.6729C74.6843 34.6494 73.5408 34.9835 72.9155 34.6751C72.0461 34.2596 73.2282 32.5594 74.9285 31.7799C75.4124 31.5572 75.8664 31.4458 76.2476 31.4458C76.7315 31.4458 77.117 31.6128 77.3226 31.9469L77.4982 32.2253L77.8451 32.0026C78.2263 31.7542 78.3676 31.7242 78.5732 31.8912C78.7102 32.0026 78.676 32.1139 78.3633 32.5594C77.9136 33.2275 77.7723 33.7286 77.9821 33.977C78.1192 34.1183 78.2263 34.144 78.6417 34.1183C79.4383 34.0626 80.4105 33.6472 82.008 32.615C82.4577 32.3366 82.8047 32.1139 83.083 31.9726L83.0145 31.9426L83.0102 31.9469ZM76.0334 33.1718C76.83 32.6964 76.8643 32.6707 76.7615 32.3923C76.693 32.2253 76.5902 32.0583 76.5174 32.0326C76.4831 32.0026 76.4146 31.9769 76.3418 31.9769C75.5795 31.9469 73.6693 33.2575 73.4252 34.0669C73.3224 34.4267 73.528 34.401 74.4316 33.9813C74.8128 33.7843 75.5066 33.4245 75.9563 33.1461L76.0249 33.1761L76.0334 33.1718Z" fill="#231F20"/>
<path id="Vector_9" d="M94.9122 31.8068C94.9465 31.8924 94.5653 32.1151 94.0813 32.3635C93.4903 32.6676 93.0748 32.779 92.5909 32.9203C91.7215 33.1687 90.6122 33.2801 90.0554 33.1687C89.4301 33.0574 89.3959 33.0574 89.1517 33.3101C88.8048 33.6698 87.7983 34.3679 87.4172 34.505C86.8604 34.702 86.2736 34.672 85.9953 34.4193C85.7169 34.1966 85.6141 33.9482 85.5456 33.3315L85.5113 32.9717L84.8175 33.5842C84.1236 34.1966 83.4983 34.5607 83.0829 34.5607C82.9459 34.5607 82.736 34.475 82.5989 34.3936C82.3548 34.2523 82.3205 34.1709 82.3891 33.7255C82.4576 33.1987 82.7703 32.4749 83.2585 31.7468C83.5026 31.387 83.6054 31.3014 83.8495 31.3014C84.2992 31.3014 84.2992 31.4984 83.8838 32.1109C83.4684 32.6933 82.9458 33.9182 83.0529 34.0039C83.16 34.0895 83.5754 33.7812 84.3035 33.113C85.5199 32.0252 85.7254 31.9181 86.1066 32.1665C86.2437 32.2479 86.2779 32.4149 86.2437 32.946C86.1751 33.6141 86.3465 34.2266 86.5906 34.2266C86.8004 34.2266 87.944 33.4771 88.2909 33.113C88.5693 32.809 88.6721 32.6119 88.6721 32.3336C88.6721 31.8025 89.019 31.3571 89.4687 31.3314C90.0254 31.3014 90.1625 31.6098 89.8841 32.1922C89.7813 32.4406 89.7085 32.6676 89.7471 32.6933C89.7813 32.7233 90.1282 32.749 90.5094 32.749C91.3788 32.749 92.3125 32.582 93.426 31.9952C94.1884 31.6055 94.6424 31.5241 94.7109 31.7725L94.9208 31.7982L94.9122 31.8068Z" fill="#231F20"/>
<path id="Vector_10" d="M104.733 31.6947C104.767 31.7804 104.557 31.9731 104.176 32.2258C103.204 32.8939 101.293 33.9218 100.047 34.3415C98.7966 34.787 97.9657 34.7313 97.5502 34.2002C97.3061 33.8961 97.3746 33.5578 97.8286 32.6113C98.0042 32.2472 98.107 31.9431 98.0728 31.9174C97.8972 31.8061 96.1969 32.6113 95.2632 33.2537C94.3295 33.8961 93.0404 34.59 92.8005 34.59C92.6635 34.59 92.4536 34.5343 92.3508 34.4486C92.2138 34.363 92.1752 34.2259 92.2138 34.0289C92.3508 33.4164 93.7042 31.6091 94.1925 31.4121C94.3295 31.3564 94.4366 31.3564 94.5736 31.4677C94.7835 31.6091 94.7835 31.6348 94.4709 31.9688C94.0212 32.4699 93.186 33.5835 93.0832 33.8362C93.0147 33.9732 93.3959 33.7805 94.3681 33.168C96.6594 31.7461 97.9443 31.275 98.531 31.6348C98.8779 31.8318 98.8437 32.2215 98.4625 32.971C98.1156 33.6392 98.0471 34.1659 98.2869 34.2216C98.9122 34.363 100.784 33.5792 103.216 32.1873C104.189 31.6305 104.501 31.5448 104.638 31.7975L104.741 31.6862L104.733 31.6947Z" fill="#231F20"/>
</g>
</g>
<defs>
<clipPath id="clip0_527_800">
<rect width="104.382" height="34.46" fill="white" transform="translate(0.354919 0.77002)"/>
</clipPath>
</defs>
</svg>
