<svg width="92" height="94" viewBox="0 0 92 94" fill="none" xmlns="http://www.w3.org/2000/svg">
<g id="Layer_1" clip-path="url(#clip0_527_745)">
<g id="Group">
<path id="Vector" d="M32.1652 49.6901V49.9578H29.0824V46.5423C28.4891 48.5684 26.8536 50.222 24.4367 50.222C22.1608 50.222 20.5724 48.7566 20.5724 46.5423C20.5724 42.4066 26.1191 42.4899 29.0824 42.4899C29.0571 38.6763 28.3009 36.6501 26.1191 36.6501C24.5778 36.6501 22.6601 37.6632 21.9727 40.4637H21.7339V36.6501H21.9727V36.8382C21.9727 37.5329 22.2585 37.6921 22.9677 37.2109C23.7275 36.7043 24.8166 36.3823 26.0974 36.3823C29.4624 36.3823 30.9784 38.622 30.9784 42.7576V48.4925C30.9784 49.2125 31.4053 49.6937 32.0458 49.6937H32.1652V49.6901ZM22.4684 46.7557C22.4684 48.4635 23.4163 49.6901 25.0771 49.6901C27.4253 49.6901 29.0824 47.208 29.0824 44.8887V42.754C26.5461 42.7793 22.4684 43.1809 22.4684 46.7557Z" fill="#231F20"/>
<path id="Vector_2" d="M44.2067 49.6901V49.9578H41.124V46.5423C40.5306 48.5684 38.8951 50.222 36.4782 50.222C34.2023 50.222 32.6139 48.7566 32.6139 46.5423C32.6139 42.4066 38.1606 42.4899 41.124 42.4899C41.0986 38.6763 40.3424 36.6501 38.1606 36.6501C36.6193 36.6501 34.7016 37.6632 34.0142 40.4637H33.7754V36.6501H34.0142V36.8382C34.0142 37.5329 34.3 37.6921 35.0092 37.2109C35.769 36.7043 36.8581 36.3823 38.1389 36.3823C41.5039 36.3823 43.0199 38.622 43.0199 42.7576V48.4925C43.0199 49.2125 43.4468 49.6937 44.0873 49.6937H44.2067V49.6901ZM34.5099 46.7557C34.5099 48.4635 35.4578 49.6901 37.1186 49.6901C39.4632 49.6901 41.124 47.208 41.124 44.8887V42.754C38.5876 42.7793 34.5099 43.1809 34.5099 46.7557Z" fill="#231F20"/>
<path id="Vector_3" d="M48.8524 49.6895V49.9573H44.5866V49.6895H44.706C45.3464 49.6895 45.7734 49.2083 45.7734 48.4883V39.4464C45.7734 38.7263 45.3464 38.2451 44.706 38.2451H44.5866V37.9774L47.4305 36.6423H47.6657V40.1628C48.3278 37.8435 50.2744 36.3745 51.7651 36.3745C53.3752 36.3745 54.2074 38.028 54.2074 40.5101L52.3115 41.4436C52.3115 38.9615 51.7181 37.2284 50.6037 37.2284C49.2758 37.2284 47.6657 39.5224 47.6657 41.8706V48.4847C47.6657 49.2047 48.0926 49.6859 48.7331 49.6859H48.8524V49.6895Z" fill="#231F20"/>
<path id="Vector_4" d="M58.4045 49.6886V49.9563H54.1386V49.6886H54.258C54.8984 49.6886 55.3254 49.2074 55.3254 48.4873V34.1122C55.3254 33.3922 54.8984 32.911 54.258 32.911H54.1386V32.6432L56.9825 31.3081H57.2177V42.9117L62.2181 37.8173C62.692 37.336 62.7174 36.9091 62.077 36.9091H61.697V36.6413H64.6604V36.9091H64.541C63.9005 36.9091 63.0249 37.336 62.5509 37.8173L58.3574 42.1374C60.3257 46.1645 62.0552 48.0061 64.7327 47.5792V50.007C60.3004 50.5931 59.0919 44.8076 58.191 42.3002L57.2177 43.288V48.491C57.2177 49.211 57.6446 49.6922 58.2851 49.6922H58.4045V49.6886Z" fill="#231F20"/>
<path id="Vector_5" d="M76.7741 49.6901V49.9578H73.6913V46.5423C73.0979 48.5684 71.4625 50.222 69.0456 50.222C66.7697 50.222 65.1813 48.7566 65.1813 46.5423C65.1813 42.4066 70.728 42.4899 73.6913 42.4899C73.666 38.6763 72.9098 36.6501 70.728 36.6501C69.1867 36.6501 67.269 37.6632 66.5816 40.4637H66.3428V36.6501H66.5816V36.8382C66.5816 37.5329 66.8674 37.6921 67.5766 37.2109C68.3364 36.7043 69.4255 36.3823 70.7063 36.3823C74.0712 36.3823 75.5873 38.622 75.5873 42.7576V48.4925C75.5873 49.2125 76.0142 49.6937 76.6546 49.6937H76.7741V49.6901ZM67.0772 46.7557C67.0772 48.4635 68.0252 49.6901 69.686 49.6901C72.0342 49.6901 73.6913 47.208 73.6913 44.8887V42.754C71.155 42.7793 67.0772 43.1809 67.0772 46.7557Z" fill="#231F20"/>
</g>
<path id="Vector_6" d="M45.7877 93.0207C70.8082 93.0207 91.0913 72.7376 91.0913 47.7171C91.0913 22.6967 70.8082 2.41357 45.7877 2.41357C20.7672 2.41357 0.484039 22.6967 0.484039 47.7171C0.484039 72.7376 20.7672 93.0207 45.7877 93.0207Z" fill="#9F7B17"/>
<g id="Group_2">
<path id="Vector_7" d="M25.6921 61.99C25.7681 61.9212 25.8514 61.8489 25.949 61.7693C26.0576 61.6716 26.1806 61.6245 26.3181 61.6245C26.5171 61.6354 26.6654 61.7114 26.7559 61.8561C26.8464 61.9972 26.8934 62.1637 26.8934 62.3518C26.8934 62.5399 26.8681 62.7028 26.8174 62.862L27.4434 62.786C28.5469 62.7064 29.8205 62.3011 31.2642 61.5739H31.3004C31.3583 61.5739 31.3872 61.6065 31.3872 61.668C31.3872 61.7078 31.3691 61.7331 31.3366 61.7439C30.385 62.2215 29.6107 62.5363 29.0064 62.6847C28.4022 62.8366 27.7907 62.938 27.172 62.9958C27.0273 63.0176 26.8898 63.0393 26.7523 63.0574C26.6365 63.4445 26.3651 63.6363 25.9382 63.6363C25.8514 63.6363 25.7754 63.6073 25.703 63.5494C25.6306 63.4915 25.5945 63.4156 25.5945 63.3179C25.5945 63.1912 25.6668 63.1008 25.8116 63.0465C25.9563 62.9886 26.1517 62.9452 26.3977 62.909C26.4737 62.7172 26.5099 62.5291 26.5099 62.3446C26.5099 61.9791 26.4484 61.7982 26.3217 61.7982C26.253 61.7982 26.1698 61.838 26.0721 61.9212C25.9744 62.0045 25.8803 62.0949 25.7935 62.1926C25.703 62.2939 25.6451 62.3735 25.6162 62.435C25.5945 62.5653 25.5836 62.6992 25.5836 62.8366C25.5836 62.938 25.5329 62.9886 25.428 62.9886C25.3122 62.9886 25.258 62.9307 25.258 62.8186C25.258 62.0913 25.4172 61.3279 25.7283 60.5318C26.0431 59.7358 26.4339 58.9905 26.897 58.2958C27.3601 57.6011 27.8414 57.0367 28.3407 56.5952C28.84 56.1538 29.2778 55.9331 29.6541 55.9331C29.9761 55.9331 30.1353 56.114 30.1353 56.4795C30.1353 56.9245 29.8965 57.4419 29.4225 58.0317C28.8943 58.7155 28.2864 59.3813 27.5881 60.0362C26.8934 60.691 26.2892 61.2121 25.7826 61.6065L25.6958 61.9827L25.6921 61.99ZM25.9382 63.4662C26.0865 63.4662 26.2132 63.3468 26.3145 63.108C26.148 63.137 26.0142 63.1695 25.9092 63.2021C25.8043 63.2346 25.7537 63.2744 25.7537 63.3215C25.7537 63.3685 25.7718 63.4011 25.8079 63.4264C25.8441 63.4517 25.8875 63.4662 25.931 63.4662H25.9382ZM25.8875 61.317C26.0938 61.1578 26.423 60.872 26.8789 60.4631C27.3348 60.0542 27.7943 59.6056 28.2647 59.1207C28.7351 58.6359 29.1331 58.1547 29.4587 57.6843C29.7844 57.2139 29.9472 56.8159 29.9472 56.4903C29.9472 56.2443 29.8459 56.1249 29.6469 56.1249C29.3502 56.1719 28.9522 56.465 28.4528 57.0113C27.9535 57.5577 27.4615 58.2307 26.9766 59.0339C26.4918 59.8371 26.1263 60.597 25.8875 61.3206V61.317Z" fill="#FFFCD5" stroke="#FFFCDD" stroke-width="0.5" stroke-miterlimit="10"/>
<path id="Vector_8" d="M37.3392 61.5094C37.379 61.5094 37.4079 61.5167 37.4224 61.5275C37.4368 61.5384 37.4477 61.5492 37.4513 61.5601C37.4586 61.5709 37.4586 61.589 37.4586 61.6107L37.4151 61.6614C35.8195 62.5442 34.5061 62.982 33.4749 62.982C33.1095 62.982 32.8236 62.9133 32.6174 62.7722C32.4111 62.6311 32.2917 62.4357 32.2556 62.1788C32.223 62.2114 32.1253 62.3054 31.9625 62.4502C31.626 62.7577 31.351 62.9097 31.1375 62.9097C30.83 62.9097 30.6672 62.7288 30.6491 62.3742C30.6491 62.1933 30.7178 61.987 30.8553 61.7555C30.9928 61.5239 31.1665 61.3249 31.38 61.1548C31.5898 60.9848 31.8105 60.8979 32.0421 60.8979C32.2302 60.8979 32.3641 60.9522 32.4401 61.0608C32.5161 61.1693 32.5559 61.2923 32.5559 61.4371C32.5559 61.4769 32.545 61.4986 32.5197 61.5058C32.498 61.513 32.4727 61.513 32.4509 61.513C32.4401 61.513 32.4256 61.513 32.4111 61.5058C32.3967 61.4986 32.3822 61.4913 32.3713 61.4805C32.3605 61.4696 32.3533 61.4515 32.3533 61.4298C32.3533 61.2779 32.2592 61.1983 32.071 61.191C31.9227 61.191 31.7635 61.267 31.5934 61.4226C31.4234 61.5746 31.2823 61.7518 31.1701 61.9508C31.0543 62.1499 31 62.3163 31 62.4538C31 62.6238 31.0507 62.7179 31.1556 62.736C31.2823 62.736 31.4415 62.66 31.6368 62.5044C31.8322 62.3525 32.0421 62.1535 32.2737 61.9074C32.3026 61.8568 32.3496 61.8314 32.4184 61.8314C32.545 61.8314 32.6065 61.8857 32.6065 61.9943C32.6065 62.5298 32.8996 62.7975 33.4821 62.7975C34.4663 62.7975 35.7471 62.3742 37.3211 61.5275L37.3392 61.5094Z" fill="#FFFCD5" stroke="#FFFCDD" stroke-width="0.5" stroke-miterlimit="10"/>
<path id="Vector_9" d="M36.7601 63.1841C36.6624 63.1841 36.6154 63.1262 36.6154 63.014C36.6154 62.8766 36.6697 62.6378 36.7818 62.2976C36.894 61.9575 37.0134 61.6572 37.1364 61.4039C37.1979 61.3026 37.2811 61.2447 37.3861 61.2339C37.5453 61.2339 37.6249 61.2918 37.6249 61.4039V61.4112C37.6249 61.4401 37.614 61.4727 37.5887 61.5125C37.3354 61.9611 37.1473 62.3592 37.0206 62.7065C37.2739 62.446 37.5742 62.1819 37.9216 61.9141C38.2689 61.6464 38.5511 61.5125 38.7646 61.5125C38.9528 61.5125 39.1047 61.5451 39.2169 61.6138C39.329 61.6825 39.4159 61.7694 39.4738 61.8743C39.5353 61.9792 39.5896 62.0878 39.6402 62.1927C39.6872 62.3338 39.7488 62.4568 39.8247 62.5545C39.9007 62.6522 40.0237 62.7029 40.1902 62.7029C40.7184 62.7029 41.5687 62.5075 42.7483 62.1131L44.3113 61.5089H44.3186L44.3367 61.4908C44.3765 61.5089 44.4018 61.5233 44.4126 61.5378C44.4235 61.5523 44.4307 61.574 44.4307 61.6029V61.6283C44.4307 61.6283 44.4235 61.6536 44.4054 61.6717L43.9314 61.8598C42.2091 62.5437 40.9609 62.8838 40.1902 62.8838C39.7307 62.8838 39.4304 62.7861 39.282 62.5943C39.1373 62.3881 39.0468 62.1927 39.007 62.0046C38.9853 61.9177 38.9564 61.8417 38.9202 61.773C38.9021 61.7151 38.8514 61.6862 38.7646 61.6862C38.5656 61.6862 38.2834 61.8345 37.9216 62.1348C37.5597 62.4351 37.216 62.7572 36.8831 63.1117L36.8759 63.1298C36.8759 63.1298 36.8506 63.1443 36.8325 63.1588C36.8144 63.1732 36.7891 63.1805 36.7565 63.1805L36.7601 63.1841Z" fill="#FFFCD5" stroke="#FFFCDD" stroke-width="0.5" stroke-miterlimit="10"/>
<path id="Vector_10" d="M44.2175 67.2514C43.8448 67.2044 43.6603 66.8317 43.6603 66.1262C43.6603 65.6594 43.7652 65.0841 43.9787 64.4039C44.1777 63.7671 44.4925 63.105 44.9158 62.4175C44.7711 62.5152 44.6445 62.5622 44.5287 62.5622C44.1741 62.5622 43.9896 62.3813 43.9787 62.0267C43.9787 61.8494 44.033 61.6649 44.1379 61.4695C44.2428 61.2742 44.3876 61.1041 44.5685 60.963C44.7494 60.8219 44.9556 60.7495 45.1908 60.7495C45.426 60.7495 45.5961 60.8508 45.6974 61.0571L45.7155 61.0896C45.7155 61.1982 45.6829 61.2524 45.6141 61.2524C45.578 61.2524 45.5526 61.2344 45.5273 61.2018L45.5092 61.1584C45.4622 61.086 45.3572 61.0462 45.1908 61.0462C45.0533 61.0462 44.9194 61.1077 44.7856 61.2271C44.6553 61.3465 44.5468 61.4912 44.4599 61.6577C44.3731 61.8241 44.3297 61.9761 44.3297 62.1063C44.3297 62.2764 44.4057 62.3705 44.554 62.3886C44.6228 62.3813 44.7168 62.3379 44.8362 62.2511C45.0208 62.1244 45.2089 61.9399 45.4043 61.6975L45.549 61.5166C45.6069 61.4478 45.6648 61.4153 45.7191 61.4153C45.8168 61.4225 45.8638 61.4659 45.8638 61.5528L45.8566 61.5962C45.6033 61.9073 45.3898 62.2149 45.2125 62.508C45.2523 62.6455 45.3753 62.8227 45.5816 63.0398C45.7878 63.2569 46.0664 63.3691 46.4246 63.3691C46.9384 63.3691 47.6512 63.0977 48.563 62.5514C48.9357 62.3307 49.4458 61.9869 50.0899 61.5202C50.1116 61.5202 50.1297 61.5238 50.1441 61.5347C50.1586 61.5419 50.1731 61.5491 50.1876 61.5564C50.202 61.5636 50.2093 61.5781 50.2093 61.607C50.2093 61.6541 50.1984 61.6758 50.1731 61.6758C50.1622 61.6866 50.0284 61.7843 49.7679 61.9689C49.511 62.1534 49.1853 62.3669 48.7909 62.6057C47.7706 63.2316 46.9818 63.5428 46.421 63.5428C45.8602 63.5428 45.4369 63.3944 45.1691 63.0977C45.2378 63.474 45.2704 63.8865 45.2704 64.3424C45.2704 65.1167 45.1655 65.7969 44.952 66.3794C44.7385 66.9656 44.4925 67.2587 44.2139 67.2587L44.2175 67.2514ZM44.2356 67.0705C44.4129 67.0705 44.601 66.7955 44.8037 66.242C45.0063 65.6884 45.104 65.0624 45.104 64.3569C45.104 63.8576 45.0569 63.3836 44.9592 62.9313C44.6445 63.5174 44.4057 64.0927 44.2465 64.6572C44.0873 65.2216 44.0077 65.7101 44.0077 66.1189C44.0077 66.336 44.0294 66.5459 44.0692 66.7557C44.109 66.962 44.1669 67.0669 44.2392 67.0669L44.2356 67.0705Z" fill="#FFFCD5" stroke="#FFFCDD" stroke-width="0.5" stroke-miterlimit="10"/>
<path id="Vector_11" d="M52.7056 62.9562C52 62.9562 51.6346 62.6776 51.6056 62.1204C51.6056 61.9323 51.6056 61.8346 51.6129 61.8201C51.4139 62.0119 51.2004 62.1928 50.9761 62.352C50.7517 62.5112 50.5274 62.5944 50.2995 62.5944C49.9159 62.5944 49.7061 62.4967 49.6627 62.2941L49.6554 62.1566C49.6554 61.878 49.8146 61.5379 50.1294 61.1326C50.162 61.0711 50.2271 61.0386 50.3176 61.0386C50.4659 61.0386 50.5419 61.0856 50.5419 61.1833L50.5166 61.2267C50.2126 61.6935 50.0607 62.03 50.0607 62.2434C50.0607 62.3556 50.1403 62.4135 50.2995 62.4135C50.4587 62.4135 50.636 62.3484 50.8313 62.2181C51.1932 61.9902 51.5224 61.6935 51.8191 61.3316L51.8806 61.2557C51.9132 61.1978 51.9494 61.1507 51.9819 61.1146C52.0181 61.0784 52.0977 61.0603 52.2316 61.0603C52.3329 61.0892 52.3872 61.1326 52.3872 61.1978L52.3619 61.2484C52.1737 61.527 52.0796 61.8273 52.0796 62.153C52.0796 62.3194 52.1339 62.4641 52.2461 62.5908C52.3582 62.7174 52.5102 62.7825 52.7056 62.7825C53.2338 62.7825 54.0407 62.5727 55.1262 62.153L56.6639 61.5053C56.7254 61.5053 56.758 61.5343 56.758 61.5922C56.758 61.6428 56.7435 61.6681 56.7146 61.6681C56.7037 61.679 56.5517 61.7477 56.2587 61.8744C54.616 62.598 53.4328 62.9562 52.7056 62.9562Z" fill="#FFFCD5" stroke="#FFFCDD" stroke-width="0.5" stroke-miterlimit="10"/>
<path id="Vector_12" d="M60.1556 68.1036C60.0941 68.1036 60.0543 68.0565 60.0362 67.9588C60.0362 66.555 60.8938 63.1466 62.6124 57.7338H62.5798C62.0986 58.6673 61.545 59.532 60.9227 60.3353C60.3004 61.1385 59.6599 61.7862 59.005 62.2855C58.3501 62.7848 57.7459 63.0308 57.1996 63.0308C56.57 63.0308 56.248 62.7739 56.2299 62.2529C56.2299 61.9671 56.3095 61.7174 56.4687 61.504C56.6279 61.2869 56.8594 61.1711 57.1634 61.153C57.2394 61.153 57.3117 61.1747 57.3877 61.2217C57.4637 61.2688 57.4999 61.3339 57.4999 61.4171C57.4999 61.5546 57.4492 61.6632 57.3479 61.7428C57.2466 61.8224 57.1308 61.8766 56.9969 61.9056C56.8631 61.9345 56.74 61.949 56.6315 61.949C56.6098 62.0214 56.5989 62.1154 56.5989 62.2312C56.5989 62.4013 56.6532 62.5496 56.7581 62.669C56.8631 62.792 57.0114 62.8535 57.1996 62.8535C57.7206 62.8535 58.2995 62.6075 58.9327 62.1118C59.5695 61.6161 60.1918 60.9793 60.7997 60.1978C61.4075 59.4162 61.9358 58.5949 62.3736 57.7374C61.2447 57.7483 60.2063 58.0088 59.2475 58.5117C59.2185 58.5298 59.1859 58.537 59.1534 58.537C59.0521 58.537 58.9942 58.4791 58.9906 58.367C58.9906 58.2801 59.0376 58.2222 59.1353 58.1861C59.6889 57.9545 60.2389 57.7881 60.778 57.6867C61.3171 57.589 61.8851 57.5384 62.4821 57.5384C62.8476 56.8039 63.119 56.0947 63.2962 55.4073C63.336 55.3096 63.412 55.2517 63.5206 55.23C63.687 55.23 63.7702 55.3096 63.7702 55.4688C63.7702 55.5158 63.763 55.5665 63.7449 55.6207L63.0502 57.5493C64.0163 57.5891 65.08 57.7265 66.2451 57.9581C66.2957 57.9581 66.3211 57.9834 66.3211 58.0341V58.0594C66.3102 58.1065 66.2776 58.1282 66.227 58.1282C65.0547 57.9075 63.9728 57.7772 62.9815 57.7374C61.1832 62.8499 60.2859 66.2583 60.2859 67.9697C60.2859 68.0565 60.2425 68.0999 60.1556 68.1072V68.1036ZM56.6785 61.7681C56.816 61.7681 56.9571 61.7391 57.0982 61.6776C57.243 61.6161 57.3117 61.5329 57.3117 61.4171C57.3117 61.3592 57.2611 61.3303 57.1561 61.3303C56.9427 61.3303 56.7835 61.475 56.6749 61.7645L56.6785 61.7681ZM62.6884 57.5384L62.7571 57.3683L62.6703 57.5384H62.6884Z" fill="#FFFCD5" stroke="#FFFCDD" stroke-width="0.5" stroke-miterlimit="10"/>
</g>
<g id="Group_3">
<path id="Vector_13" d="M28.7135 50.7018V50.9696H25.6308V47.554C25.0374 49.5802 23.402 51.2337 20.985 51.2337C18.7092 51.2337 17.1208 49.7683 17.1208 47.554C17.1208 43.4184 22.6675 43.5016 25.6308 43.5016C25.6055 39.688 24.8493 37.6618 22.6675 37.6618C21.1261 37.6618 19.2085 38.6749 18.521 41.4754H18.2822V37.6618H18.521V37.8499C18.521 38.5446 18.8068 38.7038 19.516 38.2226C20.2758 37.7161 21.3649 37.394 22.6458 37.394C26.0107 37.394 27.5267 39.6337 27.5267 43.7693V49.5042C27.5267 50.2242 27.9537 50.7054 28.5941 50.7054H28.7135V50.7018ZM19.0203 47.7674C19.0203 49.4752 19.9683 50.7018 21.629 50.7018C23.9773 50.7018 25.6344 48.2197 25.6344 45.9004V43.7657C23.098 43.791 19.0203 44.1927 19.0203 47.7674Z" fill="#FFFCDD"/>
<path id="Vector_14" d="M40.755 50.7018V50.9696H37.6723V47.554C37.0789 49.5802 35.4435 51.2337 33.0265 51.2337C30.7507 51.2337 29.1623 49.7683 29.1623 47.554C29.1623 43.4184 34.709 43.5016 37.6723 43.5016C37.647 39.688 36.8908 37.6618 34.709 37.6618C33.1676 37.6618 31.25 38.6749 30.5625 41.4754H30.3237V37.6618H30.5625V37.8499C30.5625 38.5446 30.8483 38.7038 31.5575 38.2226C32.3173 37.7161 33.4064 37.394 34.6873 37.394C38.0522 37.394 39.5682 39.6337 39.5682 43.7693V49.5042C39.5682 50.2242 39.9952 50.7054 40.6356 50.7054H40.755V50.7018ZM31.0618 47.7674C31.0618 49.4752 32.0098 50.7018 33.6706 50.7018C36.0152 50.7018 37.6759 48.2197 37.6759 45.9004V43.7657C35.1395 43.791 31.0618 44.1927 31.0618 47.7674Z" fill="#FFFCDD"/>
<path id="Vector_15" d="M45.4008 50.7012V50.969H41.1349V50.7012H41.2543C41.8947 50.7012 42.3217 50.22 42.3217 49.5V40.4581C42.3217 39.7381 41.8947 39.2568 41.2543 39.2568H41.1349V38.9891L43.9788 37.654H44.214V41.1745C44.8762 38.8552 46.8228 37.3862 48.3135 37.3862C49.9236 37.3862 50.7558 39.0398 50.7558 41.5218L48.8598 42.4553C48.8598 39.9732 48.2664 38.2401 47.152 38.2401C45.8241 38.2401 44.214 40.5341 44.214 42.8823V49.4964C44.214 50.2164 44.641 50.6976 45.2814 50.6976H45.4008V50.7012Z" fill="#FFFCDD"/>
<path id="Vector_16" d="M54.9525 50.7003V50.9681H50.6867V50.7003H50.8061C51.4465 50.7003 51.8734 50.2191 51.8734 49.4991V35.1239C51.8734 34.4039 51.4465 33.9227 50.8061 33.9227H50.6867V33.6549L53.5306 32.3198H53.7658V43.9234L58.7661 38.829C59.2401 38.3478 59.2655 37.9208 58.625 37.9208H58.2451V37.6531H61.2084V37.9208H61.089C60.4486 37.9208 59.573 38.3478 59.099 38.829L54.9055 43.1491C56.8738 47.1762 58.6033 49.0178 61.2808 48.5909V51.0187C56.8485 51.6049 55.64 45.8194 54.7391 43.3119L53.7658 44.2997V49.4991C53.7658 50.2191 54.1927 50.7003 54.8331 50.7003H54.9525Z" fill="#FFFCDD"/>
<path id="Vector_17" d="M74.4516 50.7018V50.9696H70.2436V47.554C69.6502 49.5802 68.0148 51.2337 65.5978 51.2337C63.3219 51.2337 61.7336 49.7683 61.7336 47.554C61.7336 43.4184 67.2803 43.5016 70.2436 43.5016C70.2183 39.688 69.4621 37.6618 67.2803 37.6618C65.7389 37.6618 63.8213 38.6749 63.1338 41.4754H62.895V37.6618H63.1338V37.8499C63.1338 38.5446 63.4196 38.7038 64.1288 38.2226C64.8886 37.7161 65.9777 37.394 67.2586 37.394C70.6235 37.394 72.1395 39.6337 72.1395 43.7693V49.5042C72.1395 50.2242 72.5665 50.7054 73.2069 50.7054H74.4516V50.7018ZM63.6295 47.7674C63.6295 49.4752 64.5775 50.7018 66.2382 50.7018C68.5864 50.7018 70.2436 48.2197 70.2436 45.9004V43.7657C67.7072 43.791 63.6295 44.1927 63.6295 47.7674Z" fill="#FFFCDD"/>
</g>
<g id="Group_4">
<path id="Vector_18" d="M45.7985 1.15967L63.3939 38.648" stroke="#FFFCDD" stroke-miterlimit="10" stroke-linecap="round"/>
<path id="Vector_19" d="M70.7389 50.3394L84.7197 70.8763" stroke="#FFFCDD" stroke-miterlimit="10" stroke-linecap="round"/>
<path id="Vector_20" d="M72.2116 50.605L77.581 56.3145" stroke="#FFFCDD" stroke-miterlimit="10" stroke-linecap="round"/>
<path id="Vector_21" d="M71.694 48.5698L88.573 62.5216" stroke="#FFFCDD" stroke-miterlimit="10" stroke-linecap="round"/>
<path id="Vector_22" d="M71.8605 47.8003L80.508 52.7283" stroke="#FFFCDD" stroke-miterlimit="10" stroke-linecap="round"/>
<path id="Vector_23" d="M71.817 46.9683L90.7077 54.8487" stroke="#FFFCDD" stroke-miterlimit="10" stroke-linecap="round"/>
<path id="Vector_24" d="M71.904 46.1323L82.2303 48.7338" stroke="#FFFCDD" stroke-miterlimit="10" stroke-linecap="round"/>
<path id="Vector_25" d="M71.9294 45.2808L91.0878 47.9076" stroke="#FFFCDD" stroke-miterlimit="10" stroke-linecap="round"/>
<path id="Vector_26" d="M71.904 44.4487L82.6645 44.4632" stroke="#FFFCDD" stroke-miterlimit="10" stroke-linecap="round"/>
<path id="Vector_27" d="M71.8385 43.6802L90.8595 41.1909" stroke="#FFFCDD" stroke-miterlimit="10" stroke-linecap="round"/>
<path id="Vector_28" d="M71.9508 42.8221L81.9733 40.0542" stroke="#FFFCDD" stroke-miterlimit="10" stroke-linecap="round"/>
<path id="Vector_29" d="M71.9294 42.0609L89.2968 34.7847" stroke="#FFFCDD" stroke-miterlimit="10" stroke-linecap="round"/>
<path id="Vector_30" d="M71.6794 41.2911L80.3812 36.0229" stroke="#FFFCDD" stroke-miterlimit="10" stroke-linecap="round"/>
<path id="Vector_31" d="M71.4552 40.3479L86.7024 27.9917" stroke="#FFFCDD" stroke-miterlimit="10" stroke-linecap="round"/>
<path id="Vector_32" d="M71.1296 39.5126L77.6858 32.5657" stroke="#FFFCDD" stroke-miterlimit="10" stroke-linecap="round"/>
<path id="Vector_33" d="M70.446 39.0368L82.7334 21.2026" stroke="#FFFCDD" stroke-miterlimit="10" stroke-linecap="round"/>
<path id="Vector_34" d="M69.7043 38.5949L74.0389 30.0776" stroke="#FFFCDD" stroke-miterlimit="10" stroke-linecap="round"/>
<path id="Vector_35" d="M68.7958 37.9351L76.821 14.4095" stroke="#FFFCDD" stroke-miterlimit="10" stroke-linecap="round"/>
<path id="Vector_36" d="M67.9816 37.4633L69.8993 28.519" stroke="#FFFCDD" stroke-miterlimit="10" stroke-linecap="round"/>
<path id="Vector_37" d="M66.9831 37.4148L69.23 8.72607" stroke="#FFFCDD" stroke-miterlimit="10" stroke-linecap="round"/>
<path id="Vector_38" d="M66.0097 37.44L65.485 28.2534" stroke="#FFFCDD" stroke-miterlimit="10" stroke-linecap="round"/>
<path id="Vector_39" d="M65.134 37.9348L58.0387 3.95264" stroke="#FFFCDD" stroke-miterlimit="10" stroke-linecap="round"/>
<path id="Vector_40" d="M64.2587 38.2132L61.1833 29.1206" stroke="#FFFCDD" stroke-miterlimit="10" stroke-linecap="round"/>
</g>
</g>
<defs>
<clipPath id="clip0_527_745">
<rect width="90.7846" height="92.04" fill="white" transform="translate(0.484039 0.97998)"/>
</clipPath>
</defs>
</svg>
