<svg width="106" height="16" viewBox="0 0 106 16" fill="none" xmlns="http://www.w3.org/2000/svg">
<g id="Layer_1" clip-path="url(#clip0_527_790)">
<path id="Vector" d="M0.851268 14.333C0.996488 13.6919 1.07087 12.9694 1.07087 12.1671V3.8311C1.07087 3.03062 0.998259 2.30806 0.851268 1.6652C0.704276 1.0241 0.509469 0.588442 0.268616 0.359985H3.3023C3.05968 0.588442 2.86664 1.0241 2.71965 1.66697C2.57266 2.30983 2.50005 3.03062 2.50005 3.83287V12.1689C2.50005 12.8436 2.52838 13.3873 2.58506 13.7999C2.64173 14.2126 2.78872 14.5597 3.02426 14.8395C3.2598 15.1193 3.62462 15.2592 4.12049 15.2592H6.27577C7.36847 15.2592 8.21145 15.0963 8.80296 14.7722C9.39447 14.4481 9.88149 14.0691 10.2622 13.637L9.80533 15.2592L9.69022 15.64H0.268616C0.509469 15.4115 0.704276 14.9759 0.851268 14.333Z" fill="#231F20"/>
<path id="Vector_2" d="M11.5905 14.3348C11.7357 13.6937 11.8101 12.9711 11.8101 12.1689V3.83287C11.8101 3.03239 11.7375 2.30983 11.5905 1.66697C11.4435 1.02587 11.2505 0.588441 11.0079 0.359985H20.4313V1.84761C20.1001 1.50404 19.6928 1.23485 19.211 1.0365C18.7276 0.83992 17.9767 0.740746 16.9601 0.740746H14.842C14.3586 0.740746 13.9991 0.880653 13.7653 1.16047C13.5297 1.44028 13.3845 1.78739 13.3261 2.20003C13.2694 2.61267 13.2411 3.15636 13.2411 3.8311V7.7609C13.4447 7.39254 13.737 7.12866 14.1177 6.96927C14.4985 6.80989 14.9819 6.73019 15.5681 6.73019H16.1968C16.9477 6.73019 17.649 6.62925 18.3043 6.42558C18.9596 6.22192 19.4129 5.98638 19.668 5.71896V8.12218C19.4129 7.85476 18.9596 7.61922 18.3043 7.41556C17.649 7.2119 16.946 7.11095 16.1968 7.11095H15.5681C14.7535 7.11095 14.162 7.29868 13.7936 7.67412C13.4253 8.04957 13.2411 8.70129 13.2411 9.62928V12.1671C13.2411 12.8418 13.2694 13.3855 13.3261 13.7982C13.3828 14.2108 13.5297 14.5579 13.7653 14.8377C14.0008 15.1175 14.3656 15.2575 14.8615 15.2575H16.8255C17.9182 15.2575 18.7612 15.0945 19.3527 14.7704C19.9442 14.4463 20.4313 14.0674 20.812 13.6352L20.3551 15.2575L20.24 15.6382H11.0079C11.2487 15.4098 11.4435 14.9741 11.5905 14.3312V14.3348Z" fill="#231F20"/>
<path id="Vector_3" d="M31.5336 14.8944C31.5336 14.6146 31.4787 14.271 31.3706 13.8637C31.2626 13.4564 31.0997 12.9357 30.8836 12.2999L27.7171 3.58317C27.5382 3.15105 27.3363 2.71893 27.1061 2.28681L23.3481 12.7409C23.0293 13.7202 22.8717 14.4446 22.8717 14.9157C22.8717 15.2468 22.9479 15.4877 23.1002 15.64H21.0777C21.3823 15.3478 21.7259 14.9086 22.1084 14.3241C22.4892 13.7397 22.8274 13.065 23.1196 12.3017L26.8582 1.86709C26.4508 1.17995 26.0754 0.678761 25.7336 0.359985H28.0996L32.4863 12.415C32.7786 13.127 33.1133 13.7751 33.4869 14.3613C33.8624 14.9458 34.19 15.3726 34.4698 15.64H31.2838C31.4485 15.4877 31.5318 15.2397 31.5318 14.8962L31.5336 14.8944Z" fill="#231F20"/>
<path id="Vector_4" d="M35.7394 14.3348C35.8847 13.6937 35.9591 12.9711 35.9591 12.1689V3.83287C35.9591 3.03239 35.8864 2.30983 35.7394 1.66697C35.5925 1.02587 35.3994 0.588442 35.1568 0.359985H44.5802V1.84761C44.249 1.50404 43.8417 1.23485 43.36 1.0365C42.8765 0.83992 42.1256 0.740746 41.1091 0.740746H38.991C38.5075 0.740746 38.148 0.880653 37.9142 1.16047C37.6787 1.44028 37.5335 1.78739 37.475 2.20003C37.4183 2.61267 37.39 3.15636 37.39 3.8311V7.7609C37.5813 7.41733 37.8575 7.16408 38.2188 6.99761C38.5819 6.83291 39.0352 6.74259 39.5825 6.73019H39.7914C40.5423 6.73019 41.2437 6.62925 41.8989 6.42559C42.5542 6.22192 43.0075 5.98638 43.2626 5.71897V8.12218C43.0075 7.85476 42.5542 7.61923 41.8989 7.41556C41.2437 7.2119 40.5406 7.11095 39.7914 7.11095H39.7153C38.9006 7.11095 38.3091 7.29868 37.9408 7.67413C37.5724 8.04957 37.3882 8.70129 37.3882 9.62929V12.1671C37.3882 12.9676 37.4608 13.6901 37.6078 14.333C37.7531 14.9759 37.9479 15.4115 38.1905 15.64H35.1568C35.3977 15.4115 35.5925 14.9759 35.7394 14.333V14.3348Z" fill="#231F20"/>
<path id="Vector_5" d="M50.9418 14.3326C51.087 13.6915 51.1614 12.969 51.1614 12.1667V10.5445L47.6513 3.69615C47.244 2.89566 46.8243 2.18904 46.3922 1.57805C45.96 0.967067 45.5775 0.561513 45.2481 0.35785H48.4341C48.319 0.460567 48.2623 0.632352 48.2623 0.873205C48.2623 1.16542 48.3544 1.54441 48.5386 2.0084C48.7228 2.4724 48.9796 3.03557 49.3107 3.69615L52.4011 9.76175L55.4525 3.69615C55.7837 3.00901 56.0351 2.44406 56.2052 1.99778C56.3769 1.55326 56.4619 1.1849 56.4619 0.890915C56.4619 0.650062 56.3982 0.471193 56.2707 0.356079H58.3108C58.0062 0.572139 57.6343 0.97238 57.1951 1.55857C56.7559 2.143 56.3203 2.84253 55.8882 3.65718L52.5888 10.2187V12.165C52.5888 12.9654 52.6614 13.688 52.8084 14.3309C52.9536 14.9737 53.1484 15.4094 53.3911 15.6379H50.3574C50.5982 15.4094 50.793 14.9737 50.94 14.3309L50.9418 14.3326Z" fill="#231F20"/>
<path id="Vector_6" d="M59.3361 14.3326C59.4814 13.6915 59.5557 12.969 59.5557 12.1667V3.83074C59.5557 3.03026 59.4831 2.3077 59.3361 1.66483C59.1891 1.02374 58.9961 0.586306 58.7535 0.35785H61.7872C61.5445 0.586306 61.3515 1.02197 61.2045 1.66483C61.0575 2.3077 60.9849 3.02849 60.9849 3.83074V9.51558C61.1886 9.15961 61.4896 8.89928 61.8917 8.73281C62.2919 8.56811 62.7984 8.47779 63.4076 8.46539C64.6278 8.4406 65.5434 8.27767 66.1544 7.97837C66.7654 7.67908 67.1745 7.23456 67.3852 6.64305C67.5942 6.05155 67.7005 5.22273 67.7005 4.15306V3.82897C67.7005 3.02849 67.6279 2.30593 67.4809 1.66306C67.3339 1.02197 67.1408 0.584535 66.8982 0.356079H69.9319C69.691 0.584535 69.4962 1.0202 69.3492 1.66306C69.2023 2.30593 69.1296 3.02672 69.1296 3.82897V12.165C69.1296 12.9654 69.2023 13.688 69.3492 14.3309C69.4962 14.9737 69.6893 15.4094 69.9319 15.6379H66.8982C67.1391 15.4094 67.3339 14.9737 67.4809 14.3309C67.6279 13.6898 67.7005 12.9672 67.7005 12.165V8.00671C67.2683 8.29892 66.714 8.50612 66.0411 8.62655C65.3663 8.74698 64.5145 8.82136 63.4855 8.84615C62.5823 8.87272 61.9412 9.06221 61.5587 9.41818C61.1779 9.77414 60.9867 10.417 60.9867 11.345V12.165C60.9867 12.9654 61.0593 13.688 61.2063 14.3309C61.3515 14.9737 61.5463 15.4094 61.7889 15.6379H58.7553C58.9961 15.4094 59.1909 14.9737 59.3379 14.3309L59.3361 14.3326Z" fill="#231F20"/>
<path id="Vector_7" d="M81.243 14.8944C81.243 14.6146 81.1881 14.271 81.0801 13.8637C80.9721 13.4564 80.8091 12.9357 80.5931 12.2999L77.4266 3.58317C77.2477 3.15105 77.0458 2.71893 76.8156 2.28681L73.0576 12.7409C72.7388 13.7202 72.5812 14.4446 72.5812 14.9157C72.5812 15.2468 72.6573 15.4877 72.8096 15.64H70.7872C71.0918 15.3478 71.4353 14.9086 71.8179 14.3241C72.1986 13.7397 72.5369 13.065 72.8291 12.3017L76.5676 1.86709C76.1603 1.17995 75.7849 0.678761 75.4431 0.359985H77.8091L82.1958 12.415C82.488 13.127 82.8227 13.7751 83.1964 14.3613C83.5719 14.9458 83.8995 15.3726 84.1793 15.64H80.9933C81.158 15.4877 81.2413 15.2397 81.2413 14.8962L81.243 14.8944Z" fill="#231F20"/>
<path id="Vector_8" d="M85.4507 14.3348C85.5959 13.6937 85.6703 12.9711 85.6703 12.1689V3.83287C85.6703 3.03239 85.5977 2.30983 85.4507 1.66697C85.3037 1.02587 85.1107 0.588442 84.868 0.359985H87.9017C87.6591 0.588442 87.4661 1.0241 87.3191 1.66697C87.1721 2.30983 87.0995 3.03062 87.0995 3.83287V12.1689C87.0995 12.8436 87.1278 13.3873 87.1845 13.7999C87.2412 14.2126 87.3881 14.5597 87.6237 14.8395C87.8592 15.1193 88.2241 15.2592 88.7199 15.2592H90.8752C91.9679 15.2592 92.8109 15.0963 93.4024 14.7722C93.9939 14.4481 94.4809 14.0691 94.8617 13.637L94.4048 15.2592L94.2897 15.64H84.8663C85.1071 15.4115 85.3019 14.9759 85.4489 14.333L85.4507 14.3348Z" fill="#231F20"/>
<path id="Vector_9" d="M98.0408 14.333C98.186 13.6919 98.2604 12.9694 98.2604 12.1671V3.8311C98.2604 3.15636 98.2321 2.61267 98.1754 2.20003C98.1187 1.78739 97.9717 1.44028 97.7362 1.16047C97.5007 0.880653 97.1412 0.740746 96.6577 0.740746H96.5815C95.6022 0.740746 94.8389 0.873569 94.2934 1.14099C93.7462 1.4084 93.3424 1.66343 93.0821 1.90428C92.8217 2.1469 92.6588 2.29921 92.5951 2.36296L93.0537 0.740746L93.1689 0.359985H104.786L104.902 0.740746L105.36 2.36296C105.297 2.29921 105.1 2.11502 104.769 1.81042C104.438 1.50581 103.981 1.25079 103.396 1.04712C102.812 0.843462 102.137 0.742517 101.374 0.742517H101.298C100.814 0.742517 100.455 0.882424 100.221 1.16224C99.9854 1.44205 99.8401 1.78916 99.7817 2.2018C99.725 2.61444 99.6967 3.15813 99.6967 3.83287V12.1689C99.6967 12.9694 99.7693 13.6919 99.9163 14.3348C100.062 14.9776 100.256 15.4133 100.499 15.6418H97.4653C97.7061 15.4133 97.9009 14.9776 98.0479 14.3348L98.0408 14.333Z" fill="#231F20"/>
</g>
<defs>
<clipPath id="clip0_527_790">
<rect width="105.086" height="15.28" fill="white" transform="translate(0.268616 0.359985)"/>
</clipPath>
</defs>
</svg>
