<svg width="93" height="80" viewBox="0 0 93 80" fill="none" xmlns="http://www.w3.org/2000/svg">
<g clip-path="url(#clip0_479_58)">
<path d="M93 0H0V80H93V0Z" fill="#231F20"/>
<path d="M86.7197 45.6356C85.5841 44.9021 84.8518 43.8594 84.3982 42.655C83.4894 40.2339 82.634 37.7925 81.7641 35.3574C80.9719 33.1445 80.1894 30.9301 79.4021 28.7172C78.6568 26.6193 77.9197 24.5198 77.168 22.425C76.5767 20.7762 76 19.1212 75.3536 17.4911C74.9615 16.5027 73.8227 15.129 71.4833 15.129C70.9439 15.129 69.9249 15.129 69.9249 15.8765C71.4833 15.8765 72.2642 17.3714 72.5963 18.2898C74.03 22.2821 75.5869 26.582 77.0109 30.5789C77.1907 31.0824 77.3689 31.5843 77.5487 32.0878C77.5763 32.1639 77.5244 32.0117 77.552 32.0878C73.3253 30.871 69.6171 30.1904 66.1972 29.6993C66.1972 29.6667 66.1972 29.7335 66.1939 29.7009C65.9444 23.2797 62.6266 15.0264 51.369 15.0264L40.9571 15C40.2993 15.0031 39.2803 15.087 39.2803 15.087C39.2803 15.087 39.4002 15.3574 39.6141 15.9044C39.8441 16.4872 39.8198 17.634 39.8198 17.634V32.0878C36.8681 32.9782 34.1659 33.8019 31.4215 34.0816C31.4021 34.0256 31.4426 34.1406 31.4215 34.0847C30.7833 32.296 30.1498 30.5074 29.5132 28.7172C28.7679 26.6193 28.0308 24.5198 27.2791 22.425C26.6878 20.7762 26.1111 19.1212 25.4647 17.4911C25.0726 16.5027 23.9338 15.129 21.5944 15.129C21.055 15.129 20.036 15.129 20.036 15.8765C20.8152 16.6239 20.6176 18.5913 20.4264 19.4103C19.9663 21.3963 19.4041 23.3605 18.8906 25.3341C18.5115 26.7933 18.262 28.2696 18.4111 29.777C18.5974 31.6527 19.6002 32.9518 21.4794 33.5719C22.0804 33.7692 22.7058 33.8998 23.4445 34.0956C23.0427 34.1795 22.7657 34.237 22.4903 34.2976C20.3697 34.7653 18.5164 35.6946 17.0211 37.2362C15.4464 38.8601 14.5457 40.8555 13.6368 42.8539C12.9856 44.2852 12.3392 45.7273 11.5616 47.0979C10.4356 49.0839 8.71841 50.38 6.33373 50.756L6 50.812C6.01296 50.8508 6.05184 50.9627 6.0648 51C6.67393 50.9083 7.28469 50.8337 7.89058 50.7234C10.3158 50.2852 12.3651 49.2145 13.9657 47.3885C15.3249 45.8392 16.143 44.0054 17 42.1873C17.6642 40.7762 18.3187 39.3528 19.1012 37.9992C20.2466 36.0163 21.9751 34.7125 24.3274 34.2292C24.5316 34.1873 24.7357 34.1469 24.9398 34.1049C24.9398 34.0598 24.9398 34.0148 24.9398 33.9713C24.5526 33.8951 24.1638 33.8252 23.7782 33.7413C22.1598 33.3916 21.076 32.3846 20.8476 31.0715C20.684 30.1282 20.7099 29.1834 20.9173 28.2603C21.3368 26.3924 21.8229 24.5385 22.2603 22.6752C22.6377 21.0715 22.8824 19.2455 22.4125 17.6169C22.4125 17.6169 22.4142 17.62 22.4158 17.6216C22.5357 17.8578 22.6313 18.0894 22.7058 18.2929C24.1395 22.2852 25.6964 26.5851 27.1204 30.582C28.5201 34.512 29.9182 38.4437 31.3 42.38C31.59 43.2067 31.859 44.0583 31.5706 44.9425C31.462 45.2735 31.2612 45.5765 31.0749 45.9448H51.3658C63.098 45.9402 66.2069 36.9332 66.2069 30.5074C66.2069 30.4141 66.2069 30.3209 66.2053 30.2277C69.6673 30.728 73.5051 31.5532 77.7982 32.8042C78.9339 35.9946 80.0663 39.1865 81.1873 42.3815C81.4773 43.2082 81.7462 44.0598 81.4579 44.9441C81.3493 45.2751 81.1484 45.5781 80.9621 45.9464H86.9271C86.9514 45.9029 86.9757 45.8594 87 45.8143C86.9044 45.7568 86.8088 45.7009 86.7149 45.6418L86.7197 45.6356ZM50.6773 15.7319C57.2189 15.7319 62.881 20.3908 63.3848 29.2098C63.3897 29.2922 63.388 29.2347 63.3913 29.317C54.217 28.4701 47.8665 29.7988 42.6225 31.2875V31.2766L42.5982 15.7319H50.6789H50.6773ZM36.6543 45.1134C35.3161 44.5431 34.8236 43.4895 34.511 42.655C33.6021 40.2339 32.7467 37.7925 31.8768 35.3574C31.7925 35.1243 31.7099 34.8897 31.6273 34.6566C34.336 34.3691 36.9329 33.603 39.8214 32.7312V44.2152C39.8247 44.9969 38.6323 45.9324 36.6559 45.1134H36.6543ZM63.4221 30.5027C63.4221 40.1142 57.5332 45.23 50.6773 45.23H42.6435L42.6225 31.8967C47.941 30.3629 54.2883 28.958 63.4123 29.878C63.4172 30.0847 63.4221 30.2914 63.4221 30.5012V30.5027Z" fill="white"/>
<path d="M28.2312 66.4403C28.3438 66.6899 28.5369 66.8203 28.8104 66.8332V66.9265H27.3913V66.8332C27.6648 66.8332 27.7646 66.714 27.6906 66.4774L26.8121 64.196H20.4051L19.5652 66.421C19.5524 66.4468 19.5459 66.4741 19.5459 66.5047V66.5884C19.5459 66.6142 19.5556 66.6416 19.5733 66.6722C19.5926 66.7027 19.6199 66.7317 19.6569 66.7559C19.6939 66.7816 19.7406 66.7993 19.7969 66.8122C19.8532 66.8251 19.924 66.8315 20.0109 66.8315V66.9249H18.5918V66.8315C19.0021 66.8315 19.2579 66.6947 19.3577 66.421H19.377L20.2169 64.196L20.2909 64.0093L23.5233 55.5409L23.3174 55.0547H23.8966L27.3157 64.0077L27.372 64.1944L28.2312 66.4371V66.4403ZM20.4791 64.0109H26.738L23.6182 55.8049L20.4791 64.0109Z" fill="white" stroke="white" stroke-width="0.25"/>
<path d="M37.0588 60.1792C37.8922 60.279 38.5873 60.6396 39.1424 61.2627C39.6959 61.8857 39.9742 62.6151 39.9742 63.449V63.6165C39.9742 64.5261 39.6508 65.3053 39.0024 65.9525C38.354 66.6013 37.5769 66.9249 36.6678 66.9249H31.8103V66.8315C31.9342 66.8444 32.0404 66.8074 32.1273 66.7188C32.2142 66.6319 32.2576 66.5257 32.2576 66.4017V55.5409C32.2576 55.4169 32.2142 55.3171 32.1273 55.2414C32.0404 55.1674 31.9342 55.1352 31.8103 55.1481V55.0547H36.1063C36.5922 55.0547 37.0411 55.1738 37.4514 55.4105C37.8617 55.6472 38.1867 55.9708 38.4232 56.3829C38.6597 56.7934 38.7788 57.2426 38.7788 57.7288V57.9913C38.7917 58.5145 38.6356 58.9814 38.3122 59.3935C37.9888 59.8041 37.5704 60.0665 37.0604 60.1792H37.0588ZM39.4497 63.6197V63.4522C39.4497 62.6666 39.173 61.9501 38.6179 61.3029C38.0644 60.6557 37.4128 60.3305 36.6662 60.3305H32.7805V66.1248C32.7805 66.1988 32.7773 66.2681 32.7709 66.3308C32.7644 66.3936 32.7516 66.4435 32.7339 66.4806C32.7145 66.5176 32.6968 66.553 32.6775 66.5836C32.6582 66.6142 32.6405 66.64 32.6212 66.6577L32.5746 66.7044L32.5376 66.7414H36.6662C37.165 66.7414 37.6284 66.5884 38.058 66.2842C38.4876 65.9783 38.8271 65.587 39.0764 65.1073C39.3258 64.6275 39.4497 64.1316 39.4497 63.6213V63.6197ZM32.7805 55.227V60.1438H36.1063C36.7048 60.1438 37.2116 59.9361 37.6284 59.5175C38.0451 59.1005 38.2543 58.5982 38.2543 58.0122V57.7321C38.2543 57.3457 38.1577 56.9593 37.9646 56.5729C37.7716 56.1865 37.5093 55.8661 37.1795 55.6101C36.8496 55.3558 36.4908 55.227 36.1047 55.227H32.7789H32.7805Z" fill="white" stroke="white" stroke-width="0.25"/>
<path d="M48.0571 55.0547C48.7538 55.0547 49.4151 55.2141 50.0378 55.5312C50.6605 55.8484 51.1995 56.2734 51.6532 56.8015C52.1069 57.3312 52.4722 57.9607 52.7457 58.69C53.0192 59.4193 53.156 60.1889 53.156 60.9987C53.156 62.0709 52.9291 63.061 52.4738 63.9706C52.0184 64.8803 51.399 65.5999 50.6154 66.1296C49.8302 66.6593 48.9775 66.9233 48.0555 66.9233C47.1336 66.9233 46.284 66.6593 45.5053 66.1296C44.7265 65.5999 44.1103 64.8803 43.6566 63.9706C43.2012 63.061 42.9744 62.0709 42.9744 60.9987C42.9744 59.9264 43.2012 58.9331 43.6566 58.017C44.1103 57.1009 44.7282 56.3781 45.5053 55.8484C46.284 55.3187 47.1336 55.0547 48.0555 55.0547H48.0571ZM45.7772 65.9235C46.4868 66.4661 47.2494 66.7366 48.0652 66.7366C48.8809 66.7366 49.6404 66.4661 50.3451 65.9235C51.0482 65.381 51.6033 64.671 52.0072 63.7919C52.411 62.9129 52.6137 61.9823 52.6137 60.997C52.6137 60.0118 52.411 59.078 52.0072 58.1925C51.6017 57.307 51.0482 56.5938 50.3451 56.0529C49.642 55.5103 48.8809 55.2398 48.0652 55.2398C47.2494 55.2398 46.4868 55.5103 45.7772 56.0529C45.0676 56.5954 44.5093 57.3086 44.1055 58.1925C43.7 59.078 43.4989 60.0118 43.4989 60.997C43.4989 61.9823 43.7016 62.9129 44.1055 63.7919C44.5093 64.671 45.0676 65.381 45.7772 65.9235Z" fill="white" stroke="white" stroke-width="0.25"/>
<path d="M58.3796 55.0579C58.9283 55.0579 59.4946 55.132 60.0803 55.2817C60.666 55.4314 61.2484 55.6681 61.8276 55.9917C62.4069 56.3153 62.9201 56.7049 63.3691 57.1605C63.818 57.6161 64.1816 58.1732 64.4615 58.8333C64.7415 59.4933 64.8815 60.2098 64.8815 60.9826C64.8815 61.7553 64.7383 62.475 64.4519 63.1415C64.1655 63.808 63.7922 64.3683 63.3304 64.8239C62.8703 65.2795 62.349 65.6692 61.7713 65.9928C61.1921 66.3164 60.6129 66.553 60.0336 66.7027C59.4544 66.8525 58.9041 66.9265 58.3796 66.9265H56.156V66.8332C56.2799 66.846 56.3861 66.8122 56.473 66.7301C56.5599 66.6496 56.6033 66.5466 56.6033 66.421V55.5602C56.6033 55.4363 56.5599 55.3332 56.473 55.2511C56.3861 55.1706 56.2799 55.1368 56.156 55.1481V55.0547H58.3796V55.0579ZM58.3796 66.7044C58.8398 66.7044 59.3353 66.6303 59.8647 66.4806C60.3941 66.3308 60.9234 66.0974 61.4528 65.7802C61.9821 65.4631 62.4616 65.088 62.8912 64.6581C63.3208 64.2282 63.6731 63.6921 63.9467 63.0514C64.2202 62.409 64.357 61.7215 64.357 60.9858C64.357 60.25 64.2202 59.5191 63.9467 58.8639C63.6731 58.2102 63.324 57.6677 62.9008 57.2378C62.4777 56.8079 61.9982 56.4409 61.4624 56.135C60.9266 55.8291 60.3973 55.6085 59.8744 55.4717C59.3514 55.3348 58.8527 55.2656 58.3796 55.2656H57.1471V66.07C57.1471 66.2326 57.1246 66.3663 57.0812 66.4725C57.0377 66.5788 56.9911 66.6432 56.9412 66.6689L56.8849 66.706H58.3796V66.7044Z" fill="white" stroke="white" stroke-width="0.25"/>
<path d="M72.7402 66.5761C73.2396 66.6016 73.6964 66.4537 74.1093 66.1325V66.7781H67.8813V66.6858C67.987 66.6986 68.0775 66.6652 68.1516 66.5841C68.2257 66.5046 68.2627 66.4092 68.2627 66.2979V55.5349C68.2627 55.4124 68.2257 55.3139 68.1516 55.2391C68.0775 55.166 67.987 55.1342 67.8813 55.1469V55.0547H74.1093V55.6637C73.684 55.3568 73.2272 55.2089 72.7402 55.22H68.7113V61.1096H72.1998C72.518 61.1461 72.7937 61.0364 73.0283 60.7772V61.6454C72.7951 61.3751 72.5125 61.2574 72.1847 61.294L68.7127 61.2749V65.9449C68.7127 66.1055 68.6934 66.2375 68.6564 66.3424C68.6194 66.4473 68.5851 66.5125 68.5535 66.5364L68.4904 66.573H72.743L72.7402 66.5761Z" fill="white" stroke="white" stroke-width="0.25"/>
</g>
<defs>
<clipPath id="clip0_479_58">
<rect width="93" height="80" fill="white"/>
</clipPath>
</defs>
</svg>
