<svg width="106" height="48" viewBox="0 0 106 48" fill="none" xmlns="http://www.w3.org/2000/svg">
<g id="Layer_1" clip-path="url(#clip0_527_722)">
<g id="Group">
<path id="Vector" d="M6.75302 35.4495C5.02351 35.4495 4.02857 34.6313 3.77286 32.9994C3.16381 33.6875 2.6431 34.2128 2.21537 34.5708C1.78764 34.9288 1.42035 35.1101 1.11815 35.1101C0.625335 35.1101 0.341732 34.7986 0.262695 34.1803C0.262695 33.8548 0.360329 33.5154 0.555597 33.1621C0.750864 32.8088 1.01587 32.5066 1.34597 32.2555C1.67606 32.0044 2.03405 31.8789 2.41529 31.8789C2.6524 31.8789 2.82442 31.944 2.94065 32.0788C3.05223 32.2137 3.10802 32.3624 3.10802 32.5298C3.10802 32.6367 3.05688 32.6925 2.95925 32.6925C2.89881 32.6925 2.85232 32.66 2.81047 32.5903C2.77328 32.4601 2.66635 32.3996 2.49897 32.3996C2.07589 32.3996 1.69931 32.6228 1.36456 33.0691C1.02982 33.5154 0.862446 33.9432 0.862446 34.3477C0.862446 34.6545 0.941483 34.8033 1.09956 34.8033C1.4622 34.8033 2.13169 34.2919 3.10802 33.269C3.2754 33.111 3.47066 32.8971 3.69848 32.6181C3.62874 32.1858 3.59619 31.7115 3.59619 31.2001C3.59619 30.3168 3.74497 29.3683 4.04717 28.3688C4.34937 27.3692 4.73525 26.3975 5.21412 25.463C5.693 24.5285 6.19511 23.7009 6.72512 22.9849C7.55269 21.8738 8.31981 21.288 9.02649 21.2275C9.31939 21.2275 9.56115 21.3252 9.74247 21.5204C9.92379 21.7157 10.0168 22.0179 10.0168 22.4224C10.0168 23.1523 9.63089 24.2077 8.86377 25.5932C7.59453 27.9829 6.06028 30.2656 4.26103 32.4415C4.40051 34.171 5.22807 35.0776 6.75302 35.1566C7.78515 35.1566 8.86377 34.7661 9.98423 33.9897C11.2116 33.2039 12.0159 32.6181 12.3879 32.2323C12.4158 32.2137 12.4437 32.2044 12.4623 32.2044C12.5878 32.2044 12.6529 32.2555 12.6529 32.3531C12.6529 32.3903 12.6343 32.4322 12.5925 32.4694C12.0624 32.9436 11.2488 33.5387 10.1563 34.2547C8.98465 35.0497 7.85024 35.4495 6.74837 35.4495H6.75302ZM4.21919 31.9952C5.6465 30.2517 6.91574 28.4338 8.02691 26.537C9.13807 24.6401 9.69598 23.2639 9.69598 22.4177C9.69598 21.8273 9.47282 21.5344 9.03114 21.5344C8.58947 21.5344 8.12454 21.8831 7.57593 22.5758C7.03197 23.2686 6.49731 24.1426 5.98125 25.1933C5.46518 26.2441 5.03745 27.332 4.69806 28.4478C4.35867 29.5636 4.19129 30.5399 4.19129 31.3768L4.21919 31.9952Z" fill="#231F20"/>
<path id="Vector_2" d="M13.5968 34.9771C12.3647 34.9771 11.7417 34.4936 11.7231 33.5312C11.7231 32.9221 11.9184 32.3596 12.3136 31.8482C12.374 31.7412 12.481 31.6854 12.639 31.6854C12.746 31.6854 12.839 31.7087 12.918 31.7505C12.997 31.797 13.0342 31.8575 13.0342 31.9365L13.0203 32.0109C12.6948 32.5037 12.5321 33.0244 12.5321 33.573C12.5321 33.8473 12.6204 34.0937 12.7925 34.3123C12.9645 34.5308 13.2295 34.6516 13.5828 34.6795C14.1826 34.6795 14.8986 34.554 15.7308 34.303C16.563 34.0519 17.3766 33.7636 18.1716 33.4382C18.9666 33.1128 19.6361 32.8245 20.1801 32.5688L21.0216 32.1829C21.1378 32.1829 21.1983 32.234 21.1983 32.3317C21.1983 32.3596 21.189 32.3921 21.175 32.42C21.1611 32.4479 21.1425 32.4665 21.1239 32.4665C21.096 32.4851 20.8124 32.6199 20.2731 32.871C19.7384 33.122 19.0736 33.4103 18.2879 33.7357C16.2515 34.5633 14.6894 34.9771 13.5968 34.9771ZM13.0668 31.1415C12.839 31.1415 12.7274 30.9648 12.7274 30.6115C12.7274 30.1372 12.8855 29.8676 13.2016 29.7979C13.3504 29.7979 13.4759 29.8583 13.5875 29.9838C13.6944 30.1094 13.7502 30.2395 13.7502 30.3744C13.7502 30.551 13.6758 30.723 13.527 30.8904C13.3783 31.0578 13.2248 31.1415 13.0714 31.1415H13.0668Z" fill="#231F20"/>
<path id="Vector_3" d="M19.9986 35.0912C19.8312 35.0912 19.7476 34.9935 19.7476 34.7983C19.7476 34.5611 19.8452 34.1474 20.0358 33.5569C20.2264 32.9665 20.431 32.4504 20.6495 32.0087C20.7564 31.8321 20.9006 31.7344 21.0772 31.7158C21.3515 31.7158 21.491 31.8135 21.491 32.0087V32.0227C21.491 32.0738 21.4724 32.1296 21.4306 32.1993C20.9982 32.9758 20.6728 33.6638 20.4589 34.2636C20.8913 33.8126 21.4073 33.3523 22.0071 32.8921C22.6068 32.4318 23.0904 32.1993 23.453 32.1993C23.7784 32.1993 24.0341 32.2598 24.2294 32.376C24.42 32.4922 24.5688 32.6457 24.6711 32.827C24.7734 33.0083 24.871 33.1943 24.9593 33.3802C25.0384 33.6267 25.1453 33.8359 25.2755 34.0079C25.4103 34.1799 25.6195 34.2682 25.9031 34.2682C26.8097 34.2682 28.2742 33.9289 30.3013 33.2501L32.9886 32.204H33.0025L33.0304 32.1761C33.1001 32.204 33.142 32.2319 33.1652 32.2551C33.1838 32.2784 33.1931 32.3156 33.1931 32.3667V32.4132C33.1931 32.4132 33.1792 32.455 33.1466 32.4876L32.333 32.813C29.3715 33.9939 27.2282 34.5844 25.8985 34.5844C25.1128 34.5844 24.5921 34.417 24.3363 34.0823C24.0899 33.7289 23.9319 33.3895 23.8621 33.0641C23.8249 32.9153 23.7738 32.7851 23.7134 32.6643C23.6855 32.5666 23.5971 32.5155 23.4483 32.5155C23.1043 32.5155 22.6208 32.7758 22.0024 33.2919C21.3841 33.808 20.789 34.3705 20.2171 34.9796L20.2032 35.0075C20.2032 35.0075 20.1567 35.0354 20.1288 35.0586C20.1009 35.0819 20.0544 35.0958 19.994 35.0958L19.9986 35.0912Z" fill="#231F20"/>
<path id="Vector_4" d="M34.1324 34.9771C32.9004 34.9771 32.2774 34.4936 32.2588 33.5312C32.2588 32.9221 32.4541 32.3596 32.8492 31.8482C32.9097 31.7412 33.0166 31.6854 33.1747 31.6854C33.2816 31.6854 33.3746 31.7087 33.4536 31.7505C33.5327 31.797 33.5699 31.8575 33.5699 31.9365L33.5559 32.0109C33.2305 32.5037 33.0678 33.0244 33.0678 33.573C33.0678 33.8473 33.1561 34.0937 33.3281 34.3123C33.5001 34.5308 33.7651 34.6516 34.1185 34.6795C34.7182 34.6795 35.4342 34.554 36.2664 34.303C37.0986 34.0519 37.9123 33.7636 38.7073 33.4382C39.5023 33.1128 40.1718 32.8245 40.7157 32.5688L41.5572 32.1829C41.6735 32.1829 41.7339 32.234 41.7339 32.3317C41.7339 32.3596 41.7246 32.3921 41.7107 32.42C41.6967 32.4479 41.6781 32.4665 41.6595 32.4665C41.6316 32.4851 41.348 32.6199 40.8087 32.871C40.2741 33.122 39.6092 33.4103 38.8235 33.7357C36.7871 34.5633 35.225 34.9771 34.1324 34.9771ZM33.6024 31.1415C33.3746 31.1415 33.263 30.9648 33.263 30.6115C33.263 30.1372 33.4211 29.8676 33.7372 29.7979C33.886 29.7979 34.0115 29.8583 34.1231 29.9838C34.2301 30.1094 34.2859 30.2395 34.2859 30.3744C34.2859 30.551 34.2115 30.723 34.0627 30.8904C33.9139 31.0578 33.7605 31.1415 33.6071 31.1415H33.6024Z" fill="#231F20"/>
<path id="Vector_5" d="M40.5343 35.0912C40.3669 35.0912 40.2832 34.9935 40.2832 34.7983C40.2832 34.5611 40.3808 34.1474 40.5715 33.5569C40.7621 32.9665 40.9666 32.4504 41.1852 32.0087C41.2921 31.8321 41.4362 31.7344 41.6129 31.7158C41.8872 31.7158 42.0267 31.8135 42.0267 32.0087V32.0227C42.0267 32.0738 42.0081 32.1296 41.9662 32.1993C41.5338 32.9758 41.2084 33.6638 40.9945 34.2636C41.4269 33.8126 41.943 33.3523 42.5427 32.8921C43.1425 32.4318 43.626 32.1993 43.9886 32.1993C44.3141 32.1993 44.5698 32.2598 44.7651 32.376C44.9557 32.4922 45.1045 32.6457 45.2067 32.827C45.309 33.0083 45.4067 33.1943 45.495 33.3802C45.574 33.6267 45.681 33.8359 45.8111 34.0079C45.946 34.1799 46.1552 34.2682 46.4388 34.2682C47.3454 34.2682 48.8099 33.9289 50.8369 33.2501L53.5242 32.204H53.5381L53.566 32.1761C53.6358 32.204 53.6776 32.2319 53.7009 32.2551C53.7195 32.2784 53.7288 32.3156 53.7288 32.3667V32.4132C53.7288 32.4132 53.7148 32.455 53.6823 32.4876L52.8687 32.813C49.9071 33.9939 47.7638 34.5844 46.4341 34.5844C45.6484 34.5844 45.1277 34.417 44.872 34.0823C44.6256 33.7289 44.4675 33.3895 44.3978 33.0641C44.3606 32.9153 44.3094 32.7851 44.249 32.6643C44.2211 32.5666 44.1328 32.5155 43.984 32.5155C43.6399 32.5155 43.1564 32.7758 42.5381 33.2919C41.9197 33.808 41.3246 34.3705 40.7528 34.9796L40.7388 35.0075C40.7388 35.0075 40.6923 35.0354 40.6644 35.0586C40.6365 35.0819 40.5901 35.0958 40.5296 35.0958L40.5343 35.0912Z" fill="#231F20"/>
<path id="Vector_6" d="M55.0167 32.3624C54.9097 32.567 54.8121 32.7715 54.7238 32.9668C54.5843 33.2411 54.4634 33.4782 54.3565 33.6735C54.2495 33.8688 54.0961 34.1059 53.9009 34.3802C53.6637 34.794 53.3848 34.9985 53.0593 34.9985C52.5386 34.9288 52.2783 34.6219 52.2783 34.0687C52.2783 33.5154 52.52 32.9715 53.0035 32.4229C53.4871 31.8789 54.0171 31.6046 54.5982 31.6046C54.7935 31.6046 54.933 31.6371 55.012 31.7069L55.0399 31.665C55.2259 31.2419 55.4304 30.9723 55.6443 30.8514C55.6536 30.8421 55.6722 30.8328 55.6955 30.8235C55.7187 30.8142 55.7419 30.8096 55.7605 30.8096C55.9791 30.8096 56.1185 30.9026 56.179 31.0885C56.2441 31.2745 56.2766 31.5256 56.2766 31.8417C56.2766 33.5154 56.1046 35.2031 55.7605 36.9047C58.4943 35.854 61.7255 34.2825 65.4542 32.1997C65.5937 32.1997 65.6587 32.2555 65.6587 32.3624C65.6587 32.3996 65.6355 32.4368 65.5844 32.4647C61.8185 34.5894 58.5175 36.1887 55.6815 37.258C55.1189 39.9732 54.1426 42.3257 52.7432 44.3109C51.3484 46.3054 49.5538 47.3562 47.3733 47.4538C46.6155 47.4538 45.9972 47.1841 45.5136 46.6495C45.0301 46.1148 44.7884 45.4546 44.7884 44.6782C44.7884 43.223 45.2812 42.0886 46.2622 41.2843C47.2246 40.466 48.6054 39.7035 50.3953 38.9969C51.2787 38.6528 51.9389 38.3971 52.3713 38.2297C52.7153 38.0903 53.0872 37.9461 53.4871 37.7881C53.8869 37.63 54.4402 37.4115 55.1468 37.1232C55.5606 35.2821 55.7652 33.5433 55.7652 31.8975C55.7652 31.4233 55.7559 31.1815 55.7373 31.1583C55.6211 31.2373 55.4444 31.5023 55.2073 31.9533C55.2584 32.0137 55.2817 32.1114 55.2817 32.2462C55.2817 32.3531 55.2259 32.4089 55.1189 32.4089C55.0678 32.4089 55.0353 32.3903 55.0167 32.3485V32.3624ZM47.3733 47.147C48.345 47.147 49.2377 46.8819 50.0513 46.3519C50.8649 45.8219 51.5948 45.0966 52.2504 44.1807C52.9059 43.2649 53.4685 42.2234 53.9473 41.0518C54.4262 39.8802 54.7982 38.6947 55.0771 37.4952C54.8214 37.5928 54.5331 37.709 54.2077 37.8346C52.427 38.504 50.8881 39.1224 49.591 39.6849C48.2939 40.2521 47.2478 40.8612 46.4621 41.5214C45.5462 42.2374 45.0906 43.2927 45.0906 44.6782C45.0906 45.3756 45.2951 45.9614 45.7043 46.4356C46.1134 46.9098 46.6713 47.1423 47.378 47.1423L47.3733 47.147ZM53.0547 34.6963C53.2732 34.6963 53.5057 34.4871 53.7614 34.0687C54.0171 33.6502 54.3472 33.0365 54.7517 32.2322L54.7982 32.1299C54.7982 32.1299 54.747 32.116 54.6819 32.116C54.2774 32.116 53.873 32.3438 53.4731 32.7948C53.0733 33.2458 52.8687 33.7293 52.8687 34.2407C52.8687 34.5475 52.9338 34.6963 53.0593 34.6963H53.0547Z" fill="#231F20"/>
</g>
<g id="Group_2">
<path id="Vector_7" d="M6.70197 13.3213C7.06461 13.3213 7.31567 13.4887 7.44585 13.8281C7.47374 13.9303 7.48304 14.0326 7.48304 14.121C7.48304 14.4743 7.31567 14.7161 6.97627 14.8462C6.88329 14.8834 6.79495 14.9067 6.70197 14.9067C6.33468 14.9067 6.08827 14.7393 5.95809 14.3999C5.9302 14.3069 5.9209 14.2186 5.9209 14.1256C5.9209 13.7583 6.08827 13.5119 6.42766 13.3817C6.52065 13.3445 6.60898 13.3213 6.70197 13.3213Z" fill="#231F20"/>
<path id="Vector_8" d="M10.598 12.8057C11.1978 12.8057 11.6069 13.0846 11.8254 13.6425C11.8673 13.8145 11.8905 13.9773 11.8905 14.126C11.8905 14.7072 11.6115 15.1024 11.0536 15.3209C10.9049 15.386 10.7514 15.4185 10.6027 15.4185C9.99827 15.4185 9.59378 15.1396 9.37527 14.5817C9.33343 14.4096 9.31018 14.2609 9.31018 14.1307C9.31018 13.5309 9.58913 13.1218 10.147 12.9033C10.2958 12.8382 10.4492 12.8057 10.598 12.8057Z" fill="#231F20"/>
</g>
<g id="Group_3">
<path id="Vector_9" d="M14.4335 13.6096V13.3074C15.7958 13.247 16.4002 13.0657 17.1533 12.4008H17.4555V15.302C18.8782 13.3353 20.3288 12.0986 22.5325 12.0986C25.164 12.0986 26.7354 13.8514 26.7354 17.4499V25.1258C26.7354 25.8232 27.2468 26.3346 27.9442 26.3346V26.6368C26.8842 26.6368 24.62 26.6647 24.62 25.1258V16.6642C24.62 14.4883 23.9831 12.4008 22.0211 12.4008C20.18 12.4008 18.3947 14.214 17.4555 15.8785V25.1258C17.4555 25.8232 17.967 26.3346 18.6643 26.3346V26.6368H14.1313V26.3346C14.8566 26.3346 15.3401 25.851 15.3401 25.1258V14.4883C15.3401 13.9769 14.9775 13.6096 14.4614 13.6096H14.4335Z" fill="#231F20"/>
<path id="Vector_10" d="M42.2079 26.636C41.1479 26.636 38.8837 26.6639 38.8837 25.125V23.614C37.2797 25.125 34.4716 26.9382 32.2958 26.9382C30.45 26.9382 28.9111 25.6411 28.9111 23.6466C28.9111 19.3553 36.1965 18.7509 38.8558 16.2729C38.7024 13.7344 37.131 12.4047 35.3178 12.4047C32.598 12.4047 31.7193 15.5197 32.7189 16.6076C32.7189 17.3934 32.054 17.9699 31.3287 17.9699C30.6035 17.9699 30.0874 17.3655 30.0874 16.3054C30.0874 14.0692 32.3237 12.1025 35.3178 12.1025C38.0097 12.1025 40.9991 13.674 40.9991 17.4538V25.1297C40.9991 25.8271 41.5105 26.3385 42.2079 26.3385V26.6407V26.636ZM38.8837 16.6588C36.8613 18.1977 34.2903 18.8067 32.598 20.1364C31.4775 21.0151 30.9335 22.0426 30.9335 23.098C30.9335 24.3997 31.7193 25.9107 33.7463 25.9107C35.4991 25.9107 37.038 24.7624 38.8837 23.2514V16.6634V16.6588Z" fill="#231F20"/>
<path id="Vector_11" d="M41.2412 12.7016V12.3994C42.994 12.3994 44.4445 12.5203 45.1094 14.0313L49.554 24.1573L54.3009 14.0313C54.6031 13.3665 54.18 12.8829 52.9991 12.7016V12.3994H56.2024V12.7016C55.5701 12.7946 55.0262 13.2456 54.6914 13.9709L48.7358 26.6353H48.3127L42.7801 14.0313C42.45 13.306 41.8735 12.7899 41.2412 12.7016Z" fill="#231F20"/>
<path id="Vector_12" d="M56.895 13.6089V13.3067C58.2525 13.2462 58.8616 13.0649 59.6148 12.4001H59.917V14.125C60.7957 13.1579 61.9115 12.1025 64.1199 12.1025C66.6305 12.1025 67.8393 13.3997 67.8393 15.2454C67.8393 16.4542 67.3278 17.0586 66.5979 17.0586C65.868 17.0586 65.2078 16.4868 65.2078 15.701C65.9935 14.8223 65.7192 12.4047 63.5759 12.4047C62.037 12.4047 60.7073 13.7019 59.917 14.6131V25.1297C59.917 25.8271 60.433 26.3385 61.1258 26.3385V26.6407H56.5928V26.3385C57.3181 26.3385 57.8016 25.855 57.8016 25.1297V14.4922C57.8016 13.9808 57.4389 13.6135 56.9229 13.6135H56.895V13.6089Z" fill="#231F20"/>
<path id="Vector_13" d="M81.4941 26.636C80.434 26.636 78.1699 26.6639 78.1699 25.125V23.614C76.5659 25.125 73.7577 26.9382 71.5819 26.9382C69.7362 26.9382 68.1973 25.6411 68.1973 23.6466C68.1973 19.3553 75.4826 18.7509 78.142 16.2729C77.9885 13.7344 76.4171 12.4047 74.6039 12.4047C71.8841 12.4047 71.0054 15.5197 72.005 16.6076C72.005 17.3934 71.3402 17.9699 70.6149 17.9699C69.8896 17.9699 69.3735 17.3655 69.3735 16.3054C69.3735 14.0692 71.6098 12.1025 74.6039 12.1025C77.2958 12.1025 80.2853 13.674 80.2853 17.4538V25.1297C80.2853 25.8271 80.7967 26.3385 81.4941 26.3385V26.6407V26.636ZM78.1699 16.6588C76.1475 18.1977 73.5764 18.8067 71.8841 20.1364C70.7636 21.0151 70.2197 22.0426 70.2197 23.098C70.2197 24.3997 71.0054 25.9107 73.0325 25.9107C74.7852 25.9107 76.3241 24.7624 78.1699 23.2514V16.6634V16.6588Z" fill="#231F20"/>
<path id="Vector_14" d="M94.0051 22.7965C94.0051 25.2466 91.7688 26.939 88.533 26.939C85.2971 26.939 82.5773 25.2141 82.5773 22.7361C82.5773 21.6807 83.0887 21.1042 83.8186 21.1042C84.5486 21.1042 85.2088 21.6481 85.2088 22.4339C84.423 23.3079 85.1204 26.6368 88.5051 26.6368C90.6205 26.6368 92.1315 25.3675 92.1315 23.6752C92.1315 19.5932 83.1863 20.5323 83.1863 15.9668C83.1863 13.791 85.2088 12.0986 88.0541 12.0986C90.8994 12.0986 93.7076 13.8235 93.7076 16.3015C93.7076 17.3616 93.1961 17.966 92.4662 17.966C91.7363 17.966 91.0761 17.3941 91.0761 16.6037C91.8618 15.7297 91.1691 12.4008 88.0541 12.4008C86.2409 12.4008 85.06 13.5492 85.06 14.9719C85.06 18.84 94.0051 17.9055 94.0051 22.8012V22.7965Z" fill="#231F20"/>
</g>
<path id="Vector_15" d="M58.6479 16.0253C62.9154 16.0253 66.3749 12.5658 66.3749 8.2983C66.3749 4.03079 62.9154 0.571289 58.6479 0.571289C54.3804 0.571289 50.9209 4.03079 50.9209 8.2983C50.9209 12.5658 54.3804 16.0253 58.6479 16.0253Z" fill="white"/>
<g id="Group_4">
<path id="Vector_16" d="M53.9706 14.5389L54.2681 13.9066C54.5703 13.2417 54.1472 12.7582 52.9663 12.5769V12.2747H56.1697V12.5769C55.5374 12.6699 54.9934 13.1208 54.6587 13.8461L54.2402 14.7388C55.2677 15.4455 56.4719 15.915 57.7736 16.0592V14.3575C57.7736 13.8461 57.411 13.4788 56.8949 13.4788H56.867V13.1766C58.2246 13.1162 58.8337 12.9349 59.5868 12.27H59.889V13.9949C60.7677 13.0279 61.8836 11.9725 64.0919 11.9725C64.5987 11.9725 65.0497 12.0283 65.4495 12.1259C66.0818 11.0008 66.4445 9.70831 66.4445 8.32749C66.4445 4.02696 62.9575 0.540039 58.657 0.540039C54.3565 0.540039 50.8695 4.02696 50.8695 8.32749C50.8695 10.866 52.0923 13.1162 53.9752 14.5389H53.9706Z" fill="#F15D5E"/>
<path id="Vector_17" d="M63.5431 12.2744C62.0042 12.2744 60.6746 13.5715 59.8842 14.4828V16.0077C61.9903 15.673 63.8081 14.4967 64.9937 12.8323C64.6636 12.4976 64.1894 12.2791 63.5431 12.2791V12.2744Z" fill="#F15D5E"/>
</g>
<path id="Vector_18" d="M91.927 16.751C90.7647 16.6906 90.0441 15.4864 90.0301 14.4125C90.0115 13.0828 91.0762 12.0414 92.1827 11.4741C93.61 10.7396 95.2558 10.6838 96.818 10.5304C98.3336 10.3816 99.8121 10.0701 101.225 9.49358C102.76 8.86593 104.173 7.98723 105.419 6.89001C105.642 6.69009 105.214 6.82027 104.991 7.01554C103.764 8.09881 102.453 8.70321 100.923 9.11234C99.2867 9.55402 97.7292 9.98174 96.0555 10.1305C94.4562 10.2746 92.801 10.4653 91.4295 11.3672C90.3649 12.0692 89.4862 13.2176 89.5745 14.5473C89.6628 15.8398 90.5555 17.1323 91.9316 17.2066C92.2292 17.2206 92.2292 16.7557 91.9316 16.7417L91.927 16.751Z" fill="#231F20"/>
</g>
<defs>
<clipPath id="clip0_527_722">
<rect width="105.221" height="46.92" fill="white" transform="translate(0.262695 0.540039)"/>
</clipPath>
</defs>
</svg>
